<svg
   width="210mm"
   height="297mm"
   viewBox="0 0 210 297"
   version="1.1"
   id="svg1"
   inkscape:version="1.3.2 (091e20e, 2023-11-25)"
   sodipodi:docname="QELOS-Logo.svg"
   xmlns:inkscape="http://www.inkscape.org/namespaces/inkscape"
   xmlns:sodipodi="http://sodipodi.sourceforge.net/DTD/sodipodi-0.dtd"
   xmlns="http://www.w3.org/2000/svg"
   xmlns:svg="http://www.w3.org/2000/svg">
  <sodipodi:namedview
     id="namedview1"
     pagecolor="#ffffff"
     bordercolor="#000000"
     borderopacity="0.25"
     inkscape:showpageshadow="2"
     inkscape:pageopacity="0.0"
     inkscape:pagecheckerboard="0"
     inkscape:deskcolor="#d1d1d1"
     inkscape:document-units="mm"
     inkscape:zoom="0.65946197"
     inkscape:cx="407.90828"
     inkscape:cy="727.10789"
     inkscape:window-width="1784"
     inkscape:window-height="960"
     inkscape:window-x="1871"
     inkscape:window-y="54"
     inkscape:window-maximized="0"
     inkscape:current-layer="layer1" />
  <defs
     id="defs1" />
  <g
     inkscape:label="Layer 1"
     inkscape:groupmode="layer"
     id="layer1">
    <path
       id="path44878"
       style="font-size:22.4962px;line-height:0;font-family:'Kabel Bk BT';-inkscape-font-specification:'Kabel Bk BT';fill:#ffffff;fill-opacity:1;stroke-width:1.47143"
       d="m 46.991078,131.58682 c -8.167067,0.44494 -15.285646,7.76801 -15.22029,15.99754 -0.569365,7.82546 5.259093,15.44347 12.953635,16.94469 6.614195,1.53846 14.103556,-0.96794 17.926789,-6.71148 4.820943,-6.86867 3.569658,-17.36585 -3.145713,-22.57701 -3.454783,-2.90187 -8.070289,-4.0396 -12.514421,-3.65374 z m 2.825838,5.91739 c 6.209418,0.46443 10.922083,7.09017 9.341433,13.11628 -1.171914,5.73199 -7.5331,9.58389 -13.16699,7.9901 -5.627736,-1.26053 -9.34489,-7.52442 -7.793273,-13.07593 1.209243,-5.06447 6.443888,-8.68515 11.61883,-8.03045 z m 2.083842,9.66445 -6.537337,0.83136 1.782883,3.1826 c -0.0013,0.003 -0.0019,0.005 -0.0033,0.0128 l 12.863706,22.84909 6.537273,-0.83141 -1.78288,-3.18261 c 0.0013,-0.003 0.0019,-0.005 0.0033,-0.0128 z m 23.945643,-22.6377 c 0.208005,1.51938 0.415399,3.03876 0.623412,4.55814 h 20.152089 c -0.287187,-2.04312 -0.562461,-4.08794 -0.843118,-6.132 H 75.626636 c 0.07352,0.52476 0.146425,1.04926 0.219944,1.57386 z m 11.658298,6.98239 c -0.547373,0.003 -1.097569,0.0255 -1.643243,0.0628 -7.983816,0.43175 -15.013075,7.411 -15.198528,15.45834 -0.726475,7.40942 4.141395,14.92512 11.307988,17.0691 6.109619,1.98988 14.664813,0.10051 19.686354,-3.75349 l 0.0824,-7.12912 c -6.371179,5.08897 -12.491224,6.05499 -16.44021,5.31615 -2.706371,-0.5172 -5.159547,-2.20005 -6.631477,-4.52708 7.663311,-4.52401 15.325999,-9.04758 22.989367,-13.57153 -2.017047,-4.61778 -6.363372,-8.16581 -11.4281,-8.73913 -0.902691,-0.14209 -1.812417,-0.19107 -2.724723,-0.18546 z m -0.302281,5.95604 c 0.37455,-0.002 0.752179,0.0179 1.130185,0.0628 l 0.263316,0.0128 h 0.0064 c 1.441763,0.13316 2.892515,0.53231 4.082172,1.38346 -5.271871,3.13585 -10.543719,6.27226 -15.815568,9.4081 -0.363866,-5.71678 4.714298,-10.83291 10.333673,-10.86628 z m 79.266192,-5.83951 c -5.27945,0.14592 -10.45639,4.71392 -9.93625,10.23683 -0.0378,3.62627 2.65478,6.67018 5.98897,7.776 2.78486,1.37553 6.28243,1.24594 8.66378,3.36742 1.73996,2.38964 -0.13877,6.01234 -3.05572,6.178 -3.46821,0.59261 -6.57373,-1.55357 -8.63595,-4.14425 -1.48071,1.4116 -2.95988,2.82484 -4.44569,4.23108 2.52594,3.40602 6.38738,5.93645 10.72223,6.01907 5.56275,0.67953 11.65246,-3.1638 12.30081,-8.95921 0.83501,-4.20174 -1.71305,-8.51327 -5.64903,-10.07502 -2.97554,-1.59307 -6.9878,-1.21155 -9.31555,-3.90912 -1.34259,-2.4516 1.30464,-5.00453 3.76096,-4.89542 2.98899,-0.27653 5.52077,1.64958 7.6446,3.50035 1.25089,-1.63766 2.50665,-3.27173 3.75585,-4.9107 -3.18033,-2.9796 -7.39006,-4.81553 -11.79901,-4.41503 z m -33.4775,-0.0566 c -8.16708,0.44494 -15.28564,7.76793 -15.22028,15.99746 -0.56938,7.82551 5.25909,15.44353 12.95363,16.94467 6.61418,1.53848 14.10355,-0.96792 17.92678,-6.71148 4.82096,-6.86865 3.56966,-17.36583 -3.14572,-22.57698 -3.45477,-2.90187 -8.07027,-4.0396 -12.51441,-3.65367 z m 2.82583,5.91737 c 6.20943,0.46442 10.9221,7.09019 9.34145,13.11627 -1.17192,5.73199 -7.5331,9.58389 -13.167,7.9901 -5.62773,-1.26051 -9.34488,-7.52447 -7.79326,-13.07592 1.20923,-5.06448 6.44388,-8.68516 11.61881,-8.03045 z m -23.0546,-14.53516 -6.13463,0.84437 v 41.1601 h 6.13463 c 0,0 -10e-4,-42.00485 0,-42.00447 z" />
  </g>
</svg>